<svg xmlns="http://www.w3.org/2000/svg" viewBox="0 0 24 24" fill="none">
  <path d="M5.2 10.14L9.34 4.89C9.54 4.63 9.88 4.53 10.18 4.63L13.2 5.68C13.5 5.78 13.71 6.04 13.74 6.35L14.14 10.65C14.17 10.96 14.01 11.26 13.73 11.41L9.56 13.64C9.28 13.79 8.94 13.74 8.71 13.52L5.15 10.99C4.89 10.79 4.91 10.42 5.2 10.14Z" fill="#C5F74F"/>
  <path d="M10.72 18.86L14.86 13.61C15.06 13.35 15.4 13.25 15.7 13.35L18.72 14.4C19.02 14.5 19.23 14.76 19.26 15.07L19.66 19.37C19.69 19.68 19.53 19.98 19.25 20.13L15.08 22.36C14.8 22.51 14.46 22.46 14.23 22.24L10.67 19.71C10.41 19.51 10.43 19.14 10.72 18.86Z" fill="#C5F74F"/>
</svg>
