<svg viewBox="0 0 24 24" xmlns="http://www.w3.org/2000/svg">
  <path d="M10.984 13.836a.5.5 0 0 1-.353-.146l-.745-.743a.5.5 0 1 1 .706-.708l.392.391 1.181-1.18a.5.5 0 0 1 .708.707l-1.535 1.533a.504.504 0 0 1-.354.146zm9.353-.147l1.534-1.532a.5.5 0 0 0-.707-.707l-1.181 1.18-.392-.391a.5.5 0 1 0-.706.708l.746.743a.497.497 0 0 0 .706-.001zM4.527 7.452l2.557-1.585A1 1 0 0 0 7.09 4.17L4.533 2.56A1 1 0 0 0 3 3.406v3.196a1 1 0 0 0 1.527.85zm5.024 3.091l3.254-2.027A1 1 0 0 0 12.81 6.82L9.556 4.793a1 1 0 0 0-1.532.848v4.053a1 1 0 0 0 1.527.849zm-6.194 6.2a1 1 0 0 0-.857-.99V9.643a1 1 0 1 0-2 0v6.109a1 1 0 0 0-.858.99 1 1 0 0 0 1.858.515 1 1 0 0 0 1.857-.514zm6.328-4.6l1.534-1.533a.5.5 0 0 0-.707-.707l-1.181 1.18-.392-.391a.5.5 0 1 0-.706.708l.746.743a.497.497 0 0 0 .706 0zM21 12.357a1 1 0 0 0 0-2H19.5a1 1 0 0 0 0 2zm-3.642 4.93a1 1 0 0 0-1.387.278l-1.048 1.574-.393-.391a.5.5 0 1 0-.707.707l.746.743a.5.5 0 0 0 .706-.001l1.805-2.523a1 1 0 0 0-.278-1.387h.556z" fill="#2088FF"/>
</svg>
