<svg viewBox="0 0 24 24" xmlns="http://www.w3.org/2000/svg">
  <path d="M12 2C6.477 2 2 6.477 2 12s4.477 10 10 10 10-4.477 10-10S17.523 2 12 2z" fill="#433E38"/>
  <ellipse cx="8.5" cy="10" rx="1.5" ry="2" fill="#FFFFFF"/>
  <ellipse cx="15.5" cy="10" rx="1.5" ry="2" fill="#FFFFFF"/>
  <ellipse cx="8.5" cy="10.5" rx="0.8" ry="1" fill="#1a1a1a"/>
  <ellipse cx="15.5" cy="10.5" rx="0.8" ry="1" fill="#1a1a1a"/>
  <path d="M8 15c0 0 1.5 2 4 2s4-2 4-2" stroke="#FFFFFF" stroke-width="1.5" stroke-linecap="round" fill="none"/>
  <path d="M6 6.5C5 5 4.5 4 5.5 3.5" stroke="#433E38" stroke-width="1.5" stroke-linecap="round"/>
  <path d="M18 6.5C19 5 19.5 4 18.5 3.5" stroke="#433E38" stroke-width="1.5" stroke-linecap="round"/>
</svg>
